<svg xmlns="http://www.w3.org/2000/svg" width="512" height="512" style="" viewBox="0 0 512 512">
  <path d="M81.6,75.7L49.1,13L16.6,75.7c-1,1-1.6,2-1.6,3.1C15,84.4,30.3,89,49.1,89s34.1-4.6,34.1-10.2  C83.2,77.8,82.7,76.7,81.6,75.7z" transform="matrix(-1.4890207052230835, 1.2220478057861328, -2.884385108947754, -3.5145177841186523, 386.6931457519531, 274.41973876953125)" fill="#ab4fff" />
  <path d="M81.6,75.7L49.1,13L16.6,75.7c-1,1-1.6,2-1.6,3.1C15,84.4,30.3,89,49.1,89s34.1-4.6,34.1-10.2  C83.2,77.8,82.7,76.7,81.6,75.7z" transform="matrix(1.5156769752502441, -1.1888258457183838, 2.805971622467041, 3.5774343013763428, 136.3953094482422, 229.8407440185547)" fill="#ab4fff" />
  <path transform="matrix(1.9583802223205566, 0, 0, 1.9583802223205566, 158.08099365234375, 158.08099365234375)" fill="#000000" data-type="circle" data-cx="50" data-cy="50" data-r="50" d="M50,50m-50,0a50,50 0 1, 0 100,0a50,50 0 1, 0 -100,0" />
</svg>